<mxfile host="app.diagrams.net" modified="2023-09-14T21:15:47.529Z" agent="Mozilla/5.0 (Windows NT 10.0; Win64; x64) AppleWebKit/537.36 (KHTML, like Gecko) Chrome/116.0.0.0 Safari/537.36" etag="e7Iyr_TYyrLfGt4OhwSP" version="21.7.1" type="device">
  <diagram name="Страница — 1" id="C9idvSQngyGCKj6x1Imp">
    <mxGraphModel dx="497" dy="787" grid="1" gridSize="10" guides="1" tooltips="1" connect="1" arrows="1" fold="1" page="1" pageScale="1" pageWidth="827" pageHeight="1169" math="0" shadow="0">
      <root>
        <mxCell id="0" />
        <mxCell id="1" parent="0" />
        <mxCell id="WkHlJ8shXKU_c_iPJ9zj-5" value="Workouts" style="swimlane;fontStyle=0;childLayout=stackLayout;horizontal=1;startSize=26;horizontalStack=0;resizeParent=1;resizeParentMax=0;resizeLast=0;collapsible=1;marginBottom=0;align=center;fontSize=14;" vertex="1" parent="1">
          <mxGeometry x="280" y="240" width="160" height="236" as="geometry" />
        </mxCell>
        <mxCell id="WkHlJ8shXKU_c_iPJ9zj-6" value="id" style="text;strokeColor=none;fillColor=none;spacingLeft=4;spacingRight=4;overflow=hidden;rotatable=0;points=[[0,0.5],[1,0.5]];portConstraint=eastwest;fontSize=12;whiteSpace=wrap;html=1;" vertex="1" parent="WkHlJ8shXKU_c_iPJ9zj-5">
          <mxGeometry y="26" width="160" height="30" as="geometry" />
        </mxCell>
        <mxCell id="WkHlJ8shXKU_c_iPJ9zj-80" value="user_id" style="text;strokeColor=none;fillColor=none;spacingLeft=4;spacingRight=4;overflow=hidden;rotatable=0;points=[[0,0.5],[1,0.5]];portConstraint=eastwest;fontSize=12;whiteSpace=wrap;html=1;" vertex="1" parent="WkHlJ8shXKU_c_iPJ9zj-5">
          <mxGeometry y="56" width="160" height="30" as="geometry" />
        </mxCell>
        <mxCell id="WkHlJ8shXKU_c_iPJ9zj-7" value="name" style="text;strokeColor=none;fillColor=none;spacingLeft=4;spacingRight=4;overflow=hidden;rotatable=0;points=[[0,0.5],[1,0.5]];portConstraint=eastwest;fontSize=12;whiteSpace=wrap;html=1;" vertex="1" parent="WkHlJ8shXKU_c_iPJ9zj-5">
          <mxGeometry y="86" width="160" height="30" as="geometry" />
        </mxCell>
        <mxCell id="WkHlJ8shXKU_c_iPJ9zj-81" value="descriptions" style="text;strokeColor=none;fillColor=none;spacingLeft=4;spacingRight=4;overflow=hidden;rotatable=0;points=[[0,0.5],[1,0.5]];portConstraint=eastwest;fontSize=12;whiteSpace=wrap;html=1;" vertex="1" parent="WkHlJ8shXKU_c_iPJ9zj-5">
          <mxGeometry y="116" width="160" height="30" as="geometry" />
        </mxCell>
        <mxCell id="WkHlJ8shXKU_c_iPJ9zj-82" value="created_at" style="text;strokeColor=none;fillColor=none;spacingLeft=4;spacingRight=4;overflow=hidden;rotatable=0;points=[[0,0.5],[1,0.5]];portConstraint=eastwest;fontSize=12;whiteSpace=wrap;html=1;" vertex="1" parent="WkHlJ8shXKU_c_iPJ9zj-5">
          <mxGeometry y="146" width="160" height="30" as="geometry" />
        </mxCell>
        <mxCell id="WkHlJ8shXKU_c_iPJ9zj-83" value="difficulty" style="text;strokeColor=none;fillColor=none;spacingLeft=4;spacingRight=4;overflow=hidden;rotatable=0;points=[[0,0.5],[1,0.5]];portConstraint=eastwest;fontSize=12;whiteSpace=wrap;html=1;" vertex="1" parent="WkHlJ8shXKU_c_iPJ9zj-5">
          <mxGeometry y="176" width="160" height="30" as="geometry" />
        </mxCell>
        <mxCell id="WkHlJ8shXKU_c_iPJ9zj-84" value="timer" style="text;strokeColor=none;fillColor=none;spacingLeft=4;spacingRight=4;overflow=hidden;rotatable=0;points=[[0,0.5],[1,0.5]];portConstraint=eastwest;fontSize=12;whiteSpace=wrap;html=1;" vertex="1" parent="WkHlJ8shXKU_c_iPJ9zj-5">
          <mxGeometry y="206" width="160" height="30" as="geometry" />
        </mxCell>
        <mxCell id="WkHlJ8shXKU_c_iPJ9zj-9" value="Users" style="swimlane;fontStyle=0;childLayout=stackLayout;horizontal=1;startSize=26;horizontalStack=0;resizeParent=1;resizeParentMax=0;resizeLast=0;collapsible=1;marginBottom=0;align=center;fontSize=14;" vertex="1" parent="1">
          <mxGeometry x="40" y="40" width="160" height="236" as="geometry" />
        </mxCell>
        <mxCell id="WkHlJ8shXKU_c_iPJ9zj-10" value="id" style="text;strokeColor=none;fillColor=none;spacingLeft=4;spacingRight=4;overflow=hidden;rotatable=0;points=[[0,0.5],[1,0.5]];portConstraint=eastwest;fontSize=12;whiteSpace=wrap;html=1;" vertex="1" parent="WkHlJ8shXKU_c_iPJ9zj-9">
          <mxGeometry y="26" width="160" height="30" as="geometry" />
        </mxCell>
        <mxCell id="WkHlJ8shXKU_c_iPJ9zj-11" value="first name" style="text;strokeColor=none;fillColor=none;spacingLeft=4;spacingRight=4;overflow=hidden;rotatable=0;points=[[0,0.5],[1,0.5]];portConstraint=eastwest;fontSize=12;whiteSpace=wrap;html=1;" vertex="1" parent="WkHlJ8shXKU_c_iPJ9zj-9">
          <mxGeometry y="56" width="160" height="30" as="geometry" />
        </mxCell>
        <mxCell id="WkHlJ8shXKU_c_iPJ9zj-12" value="second name" style="text;strokeColor=none;fillColor=none;spacingLeft=4;spacingRight=4;overflow=hidden;rotatable=0;points=[[0,0.5],[1,0.5]];portConstraint=eastwest;fontSize=12;whiteSpace=wrap;html=1;" vertex="1" parent="WkHlJ8shXKU_c_iPJ9zj-9">
          <mxGeometry y="86" width="160" height="30" as="geometry" />
        </mxCell>
        <mxCell id="WkHlJ8shXKU_c_iPJ9zj-25" value="password" style="text;strokeColor=none;fillColor=none;spacingLeft=4;spacingRight=4;overflow=hidden;rotatable=0;points=[[0,0.5],[1,0.5]];portConstraint=eastwest;fontSize=12;whiteSpace=wrap;html=1;" vertex="1" parent="WkHlJ8shXKU_c_iPJ9zj-9">
          <mxGeometry y="116" width="160" height="30" as="geometry" />
        </mxCell>
        <mxCell id="WkHlJ8shXKU_c_iPJ9zj-26" value="roles" style="text;strokeColor=none;fillColor=none;spacingLeft=4;spacingRight=4;overflow=hidden;rotatable=0;points=[[0,0.5],[1,0.5]];portConstraint=eastwest;fontSize=12;whiteSpace=wrap;html=1;" vertex="1" parent="WkHlJ8shXKU_c_iPJ9zj-9">
          <mxGeometry y="146" width="160" height="30" as="geometry" />
        </mxCell>
        <mxCell id="WkHlJ8shXKU_c_iPJ9zj-46" value="email" style="text;strokeColor=none;fillColor=none;spacingLeft=4;spacingRight=4;overflow=hidden;rotatable=0;points=[[0,0.5],[1,0.5]];portConstraint=eastwest;fontSize=12;whiteSpace=wrap;html=1;" vertex="1" parent="WkHlJ8shXKU_c_iPJ9zj-9">
          <mxGeometry y="176" width="160" height="30" as="geometry" />
        </mxCell>
        <mxCell id="WkHlJ8shXKU_c_iPJ9zj-47" value="phone" style="text;strokeColor=none;fillColor=none;spacingLeft=4;spacingRight=4;overflow=hidden;rotatable=0;points=[[0,0.5],[1,0.5]];portConstraint=eastwest;fontSize=12;whiteSpace=wrap;html=1;" vertex="1" parent="WkHlJ8shXKU_c_iPJ9zj-9">
          <mxGeometry y="206" width="160" height="30" as="geometry" />
        </mxCell>
        <mxCell id="WkHlJ8shXKU_c_iPJ9zj-17" value="Roles" style="swimlane;fontStyle=0;childLayout=stackLayout;horizontal=1;startSize=26;horizontalStack=0;resizeParent=1;resizeParentMax=0;resizeLast=0;collapsible=1;marginBottom=0;align=center;fontSize=14;" vertex="1" parent="1">
          <mxGeometry x="260" y="100" width="160" height="86" as="geometry" />
        </mxCell>
        <mxCell id="WkHlJ8shXKU_c_iPJ9zj-18" value="id" style="text;strokeColor=none;fillColor=none;spacingLeft=4;spacingRight=4;overflow=hidden;rotatable=0;points=[[0,0.5],[1,0.5]];portConstraint=eastwest;fontSize=12;whiteSpace=wrap;html=1;" vertex="1" parent="WkHlJ8shXKU_c_iPJ9zj-17">
          <mxGeometry y="26" width="160" height="30" as="geometry" />
        </mxCell>
        <mxCell id="WkHlJ8shXKU_c_iPJ9zj-19" value="name" style="text;strokeColor=none;fillColor=none;spacingLeft=4;spacingRight=4;overflow=hidden;rotatable=0;points=[[0,0.5],[1,0.5]];portConstraint=eastwest;fontSize=12;whiteSpace=wrap;html=1;" vertex="1" parent="WkHlJ8shXKU_c_iPJ9zj-17">
          <mxGeometry y="56" width="160" height="30" as="geometry" />
        </mxCell>
        <mxCell id="WkHlJ8shXKU_c_iPJ9zj-33" value="device" style="swimlane;fontStyle=0;childLayout=stackLayout;horizontal=1;startSize=26;horizontalStack=0;resizeParent=1;resizeParentMax=0;resizeLast=0;collapsible=1;marginBottom=0;align=center;fontSize=14;" vertex="1" parent="1">
          <mxGeometry x="1160" y="40" width="160" height="236" as="geometry" />
        </mxCell>
        <mxCell id="WkHlJ8shXKU_c_iPJ9zj-34" value="id" style="text;strokeColor=none;fillColor=none;spacingLeft=4;spacingRight=4;overflow=hidden;rotatable=0;points=[[0,0.5],[1,0.5]];portConstraint=eastwest;fontSize=12;" vertex="1" parent="WkHlJ8shXKU_c_iPJ9zj-33">
          <mxGeometry y="26" width="160" height="30" as="geometry" />
        </mxCell>
        <mxCell id="WkHlJ8shXKU_c_iPJ9zj-35" value="name" style="text;strokeColor=none;fillColor=none;spacingLeft=4;spacingRight=4;overflow=hidden;rotatable=0;points=[[0,0.5],[1,0.5]];portConstraint=eastwest;fontSize=12;" vertex="1" parent="WkHlJ8shXKU_c_iPJ9zj-33">
          <mxGeometry y="56" width="160" height="30" as="geometry" />
        </mxCell>
        <mxCell id="WkHlJ8shXKU_c_iPJ9zj-36" value="price" style="text;strokeColor=none;fillColor=none;spacingLeft=4;spacingRight=4;overflow=hidden;rotatable=0;points=[[0,0.5],[1,0.5]];portConstraint=eastwest;fontSize=12;" vertex="1" parent="WkHlJ8shXKU_c_iPJ9zj-33">
          <mxGeometry y="86" width="160" height="30" as="geometry" />
        </mxCell>
        <mxCell id="WkHlJ8shXKU_c_iPJ9zj-37" value="rating" style="text;strokeColor=none;fillColor=none;spacingLeft=4;spacingRight=4;overflow=hidden;rotatable=0;points=[[0,0.5],[1,0.5]];portConstraint=eastwest;fontSize=12;" vertex="1" parent="WkHlJ8shXKU_c_iPJ9zj-33">
          <mxGeometry y="116" width="160" height="30" as="geometry" />
        </mxCell>
        <mxCell id="WkHlJ8shXKU_c_iPJ9zj-38" value="image" style="text;strokeColor=none;fillColor=none;spacingLeft=4;spacingRight=4;overflow=hidden;rotatable=0;points=[[0,0.5],[1,0.5]];portConstraint=eastwest;fontSize=12;" vertex="1" parent="WkHlJ8shXKU_c_iPJ9zj-33">
          <mxGeometry y="146" width="160" height="30" as="geometry" />
        </mxCell>
        <mxCell id="WkHlJ8shXKU_c_iPJ9zj-39" value="type_id" style="text;strokeColor=none;fillColor=none;spacingLeft=4;spacingRight=4;overflow=hidden;rotatable=0;points=[[0,0.5],[1,0.5]];portConstraint=eastwest;fontSize=12;" vertex="1" parent="WkHlJ8shXKU_c_iPJ9zj-33">
          <mxGeometry y="176" width="160" height="30" as="geometry" />
        </mxCell>
        <mxCell id="WkHlJ8shXKU_c_iPJ9zj-40" value="brand_id" style="text;strokeColor=none;fillColor=none;spacingLeft=4;spacingRight=4;overflow=hidden;rotatable=0;points=[[0,0.5],[1,0.5]];portConstraint=eastwest;fontSize=12;" vertex="1" parent="WkHlJ8shXKU_c_iPJ9zj-33">
          <mxGeometry y="206" width="160" height="30" as="geometry" />
        </mxCell>
        <mxCell id="WkHlJ8shXKU_c_iPJ9zj-41" value="rating" style="swimlane;fontStyle=0;childLayout=stackLayout;horizontal=1;startSize=26;horizontalStack=0;resizeParent=1;resizeParentMax=0;resizeLast=0;collapsible=1;marginBottom=0;align=center;fontSize=14;" vertex="1" parent="1">
          <mxGeometry x="1400" y="40" width="160" height="146" as="geometry" />
        </mxCell>
        <mxCell id="WkHlJ8shXKU_c_iPJ9zj-42" value="id" style="text;strokeColor=none;fillColor=none;spacingLeft=4;spacingRight=4;overflow=hidden;rotatable=0;points=[[0,0.5],[1,0.5]];portConstraint=eastwest;fontSize=12;" vertex="1" parent="WkHlJ8shXKU_c_iPJ9zj-41">
          <mxGeometry y="26" width="160" height="30" as="geometry" />
        </mxCell>
        <mxCell id="WkHlJ8shXKU_c_iPJ9zj-43" value="user_id" style="text;strokeColor=none;fillColor=none;spacingLeft=4;spacingRight=4;overflow=hidden;rotatable=0;points=[[0,0.5],[1,0.5]];portConstraint=eastwest;fontSize=12;" vertex="1" parent="WkHlJ8shXKU_c_iPJ9zj-41">
          <mxGeometry y="56" width="160" height="30" as="geometry" />
        </mxCell>
        <mxCell id="WkHlJ8shXKU_c_iPJ9zj-44" value="device_id" style="text;strokeColor=none;fillColor=none;spacingLeft=4;spacingRight=4;overflow=hidden;rotatable=0;points=[[0,0.5],[1,0.5]];portConstraint=eastwest;fontSize=12;" vertex="1" parent="WkHlJ8shXKU_c_iPJ9zj-41">
          <mxGeometry y="86" width="160" height="30" as="geometry" />
        </mxCell>
        <mxCell id="WkHlJ8shXKU_c_iPJ9zj-45" value="rating" style="text;strokeColor=none;fillColor=none;spacingLeft=4;spacingRight=4;overflow=hidden;rotatable=0;points=[[0,0.5],[1,0.5]];portConstraint=eastwest;fontSize=12;" vertex="1" parent="WkHlJ8shXKU_c_iPJ9zj-41">
          <mxGeometry y="116" width="160" height="30" as="geometry" />
        </mxCell>
        <mxCell id="WkHlJ8shXKU_c_iPJ9zj-48" value="review" style="swimlane;fontStyle=0;childLayout=stackLayout;horizontal=1;startSize=26;horizontalStack=0;resizeParent=1;resizeParentMax=0;resizeLast=0;collapsible=1;marginBottom=0;align=center;fontSize=14;" vertex="1" parent="1">
          <mxGeometry x="520" y="40" width="160" height="176" as="geometry" />
        </mxCell>
        <mxCell id="WkHlJ8shXKU_c_iPJ9zj-49" value="id" style="text;strokeColor=none;fillColor=none;spacingLeft=4;spacingRight=4;overflow=hidden;rotatable=0;points=[[0,0.5],[1,0.5]];portConstraint=eastwest;fontSize=12;" vertex="1" parent="WkHlJ8shXKU_c_iPJ9zj-48">
          <mxGeometry y="26" width="160" height="30" as="geometry" />
        </mxCell>
        <mxCell id="WkHlJ8shXKU_c_iPJ9zj-50" value="user_id" style="text;strokeColor=none;fillColor=none;spacingLeft=4;spacingRight=4;overflow=hidden;rotatable=0;points=[[0,0.5],[1,0.5]];portConstraint=eastwest;fontSize=12;" vertex="1" parent="WkHlJ8shXKU_c_iPJ9zj-48">
          <mxGeometry y="56" width="160" height="30" as="geometry" />
        </mxCell>
        <mxCell id="WkHlJ8shXKU_c_iPJ9zj-51" value="device_id" style="text;strokeColor=none;fillColor=none;spacingLeft=4;spacingRight=4;overflow=hidden;rotatable=0;points=[[0,0.5],[1,0.5]];portConstraint=eastwest;fontSize=12;" vertex="1" parent="WkHlJ8shXKU_c_iPJ9zj-48">
          <mxGeometry y="86" width="160" height="30" as="geometry" />
        </mxCell>
        <mxCell id="WkHlJ8shXKU_c_iPJ9zj-52" value="comment" style="text;strokeColor=none;fillColor=none;spacingLeft=4;spacingRight=4;overflow=hidden;rotatable=0;points=[[0,0.5],[1,0.5]];portConstraint=eastwest;fontSize=12;" vertex="1" parent="WkHlJ8shXKU_c_iPJ9zj-48">
          <mxGeometry y="116" width="160" height="30" as="geometry" />
        </mxCell>
        <mxCell id="WkHlJ8shXKU_c_iPJ9zj-53" value="created_at" style="text;strokeColor=none;fillColor=none;spacingLeft=4;spacingRight=4;overflow=hidden;rotatable=0;points=[[0,0.5],[1,0.5]];portConstraint=eastwest;fontSize=12;" vertex="1" parent="WkHlJ8shXKU_c_iPJ9zj-48">
          <mxGeometry y="146" width="160" height="30" as="geometry" />
        </mxCell>
        <mxCell id="WkHlJ8shXKU_c_iPJ9zj-54" value="basket" style="swimlane;fontStyle=0;childLayout=stackLayout;horizontal=1;startSize=26;horizontalStack=0;resizeParent=1;resizeParentMax=0;resizeLast=0;collapsible=1;marginBottom=0;align=center;fontSize=14;" vertex="1" parent="1">
          <mxGeometry x="40" y="520" width="160" height="82" as="geometry" />
        </mxCell>
        <mxCell id="WkHlJ8shXKU_c_iPJ9zj-55" value="id" style="text;strokeColor=none;fillColor=none;spacingLeft=4;spacingRight=4;overflow=hidden;rotatable=0;points=[[0,0.5],[1,0.5]];portConstraint=eastwest;fontSize=12;" vertex="1" parent="WkHlJ8shXKU_c_iPJ9zj-54">
          <mxGeometry y="26" width="160" height="26" as="geometry" />
        </mxCell>
        <mxCell id="WkHlJ8shXKU_c_iPJ9zj-56" value="user_id" style="text;strokeColor=none;fillColor=none;spacingLeft=4;spacingRight=4;overflow=hidden;rotatable=0;points=[[0,0.5],[1,0.5]];portConstraint=eastwest;fontSize=12;" vertex="1" parent="WkHlJ8shXKU_c_iPJ9zj-54">
          <mxGeometry y="52" width="160" height="30" as="geometry" />
        </mxCell>
        <mxCell id="WkHlJ8shXKU_c_iPJ9zj-57" value="basket_device" style="swimlane;fontStyle=0;childLayout=stackLayout;horizontal=1;startSize=26;horizontalStack=0;resizeParent=1;resizeParentMax=0;resizeLast=0;collapsible=1;marginBottom=0;align=center;fontSize=14;" vertex="1" parent="1">
          <mxGeometry x="560" y="560" width="160" height="116" as="geometry" />
        </mxCell>
        <mxCell id="WkHlJ8shXKU_c_iPJ9zj-58" value="id" style="text;strokeColor=none;fillColor=none;spacingLeft=4;spacingRight=4;overflow=hidden;rotatable=0;points=[[0,0.5],[1,0.5]];portConstraint=eastwest;fontSize=12;" vertex="1" parent="WkHlJ8shXKU_c_iPJ9zj-57">
          <mxGeometry y="26" width="160" height="30" as="geometry" />
        </mxCell>
        <mxCell id="WkHlJ8shXKU_c_iPJ9zj-59" value="device_id" style="text;strokeColor=none;fillColor=none;spacingLeft=4;spacingRight=4;overflow=hidden;rotatable=0;points=[[0,0.5],[1,0.5]];portConstraint=eastwest;fontSize=12;" vertex="1" parent="WkHlJ8shXKU_c_iPJ9zj-57">
          <mxGeometry y="56" width="160" height="30" as="geometry" />
        </mxCell>
        <mxCell id="WkHlJ8shXKU_c_iPJ9zj-60" value="basket_id" style="text;strokeColor=none;fillColor=none;spacingLeft=4;spacingRight=4;overflow=hidden;rotatable=0;points=[[0,0.5],[1,0.5]];portConstraint=eastwest;fontSize=12;" vertex="1" parent="WkHlJ8shXKU_c_iPJ9zj-57">
          <mxGeometry y="86" width="160" height="30" as="geometry" />
        </mxCell>
        <mxCell id="WkHlJ8shXKU_c_iPJ9zj-61" value="" style="edgeStyle=entityRelationEdgeStyle;fontSize=12;html=1;endArrow=ERmandOne;startArrow=ERmandOne;rounded=0;entryX=0.431;entryY=1.13;entryDx=0;entryDy=0;entryPerimeter=0;exitX=0.444;exitY=-0.015;exitDx=0;exitDy=0;exitPerimeter=0;" edge="1" parent="1" source="WkHlJ8shXKU_c_iPJ9zj-54" target="WkHlJ8shXKU_c_iPJ9zj-47">
          <mxGeometry width="100" height="100" relative="1" as="geometry">
            <mxPoint x="376" y="350" as="sourcePoint" />
            <mxPoint x="476" y="250" as="targetPoint" />
            <Array as="points">
              <mxPoint x="149" y="390" />
            </Array>
          </mxGeometry>
        </mxCell>
        <mxCell id="WkHlJ8shXKU_c_iPJ9zj-62" value="" style="edgeStyle=entityRelationEdgeStyle;fontSize=12;html=1;endArrow=ERoneToMany;rounded=0;exitX=1;exitY=0.5;exitDx=0;exitDy=0;entryX=0;entryY=0.5;entryDx=0;entryDy=0;" edge="1" parent="1" source="WkHlJ8shXKU_c_iPJ9zj-55" target="WkHlJ8shXKU_c_iPJ9zj-59">
          <mxGeometry width="100" height="100" relative="1" as="geometry">
            <mxPoint x="540" y="430" as="sourcePoint" />
            <mxPoint x="640" y="330" as="targetPoint" />
          </mxGeometry>
        </mxCell>
        <mxCell id="WkHlJ8shXKU_c_iPJ9zj-63" value="" style="edgeStyle=entityRelationEdgeStyle;fontSize=12;html=1;endArrow=ERmandOne;startArrow=ERmandOne;rounded=0;exitX=1.008;exitY=-0.137;exitDx=0;exitDy=0;exitPerimeter=0;entryX=0;entryY=0.5;entryDx=0;entryDy=0;" edge="1" parent="1" source="WkHlJ8shXKU_c_iPJ9zj-59" target="WkHlJ8shXKU_c_iPJ9zj-37">
          <mxGeometry width="100" height="100" relative="1" as="geometry">
            <mxPoint x="460.00000000000017" y="522.5900000000001" as="sourcePoint" />
            <mxPoint x="863.68" y="150" as="targetPoint" />
            <Array as="points">
              <mxPoint x="720.28" y="186.67000000000002" />
            </Array>
          </mxGeometry>
        </mxCell>
        <mxCell id="WkHlJ8shXKU_c_iPJ9zj-64" value="type" style="swimlane;fontStyle=0;childLayout=stackLayout;horizontal=1;startSize=26;horizontalStack=0;resizeParent=1;resizeParentMax=0;resizeLast=0;collapsible=1;marginBottom=0;align=center;fontSize=14;" vertex="1" parent="1">
          <mxGeometry x="840" y="520" width="160" height="86" as="geometry" />
        </mxCell>
        <mxCell id="WkHlJ8shXKU_c_iPJ9zj-65" value="id" style="text;strokeColor=none;fillColor=none;spacingLeft=4;spacingRight=4;overflow=hidden;rotatable=0;points=[[0,0.5],[1,0.5]];portConstraint=eastwest;fontSize=12;" vertex="1" parent="WkHlJ8shXKU_c_iPJ9zj-64">
          <mxGeometry y="26" width="160" height="30" as="geometry" />
        </mxCell>
        <mxCell id="WkHlJ8shXKU_c_iPJ9zj-66" value="name" style="text;strokeColor=none;fillColor=none;spacingLeft=4;spacingRight=4;overflow=hidden;rotatable=0;points=[[0,0.5],[1,0.5]];portConstraint=eastwest;fontSize=12;" vertex="1" parent="WkHlJ8shXKU_c_iPJ9zj-64">
          <mxGeometry y="56" width="160" height="30" as="geometry" />
        </mxCell>
        <mxCell id="WkHlJ8shXKU_c_iPJ9zj-67" value="brand" style="swimlane;fontStyle=0;childLayout=stackLayout;horizontal=1;startSize=26;horizontalStack=0;resizeParent=1;resizeParentMax=0;resizeLast=0;collapsible=1;marginBottom=0;align=center;fontSize=14;" vertex="1" parent="1">
          <mxGeometry x="1040" y="520" width="160" height="86" as="geometry" />
        </mxCell>
        <mxCell id="WkHlJ8shXKU_c_iPJ9zj-68" value="id" style="text;strokeColor=none;fillColor=none;spacingLeft=4;spacingRight=4;overflow=hidden;rotatable=0;points=[[0,0.5],[1,0.5]];portConstraint=eastwest;fontSize=12;" vertex="1" parent="WkHlJ8shXKU_c_iPJ9zj-67">
          <mxGeometry y="26" width="160" height="30" as="geometry" />
        </mxCell>
        <mxCell id="WkHlJ8shXKU_c_iPJ9zj-69" value="name" style="text;strokeColor=none;fillColor=none;spacingLeft=4;spacingRight=4;overflow=hidden;rotatable=0;points=[[0,0.5],[1,0.5]];portConstraint=eastwest;fontSize=12;" vertex="1" parent="WkHlJ8shXKU_c_iPJ9zj-67">
          <mxGeometry y="56" width="160" height="30" as="geometry" />
        </mxCell>
        <mxCell id="WkHlJ8shXKU_c_iPJ9zj-71" value="" style="edgeStyle=entityRelationEdgeStyle;fontSize=12;html=1;endArrow=ERoneToMany;rounded=0;exitX=0.067;exitY=-0.031;exitDx=0;exitDy=0;exitPerimeter=0;entryX=0;entryY=0.5;entryDx=0;entryDy=0;" edge="1" parent="1" source="WkHlJ8shXKU_c_iPJ9zj-64" target="WkHlJ8shXKU_c_iPJ9zj-39">
          <mxGeometry width="100" height="100" relative="1" as="geometry">
            <mxPoint x="540" y="430" as="sourcePoint" />
            <mxPoint x="640" y="330" as="targetPoint" />
          </mxGeometry>
        </mxCell>
        <mxCell id="WkHlJ8shXKU_c_iPJ9zj-72" value="" style="edgeStyle=entityRelationEdgeStyle;fontSize=12;html=1;endArrow=ERoneToMany;rounded=0;exitX=0.156;exitY=-0.012;exitDx=0;exitDy=0;exitPerimeter=0;entryX=0;entryY=0.5;entryDx=0;entryDy=0;" edge="1" parent="1" source="WkHlJ8shXKU_c_iPJ9zj-67" target="WkHlJ8shXKU_c_iPJ9zj-40">
          <mxGeometry width="100" height="100" relative="1" as="geometry">
            <mxPoint x="780" y="399" as="sourcePoint" />
            <mxPoint x="1001" y="222" as="targetPoint" />
          </mxGeometry>
        </mxCell>
        <mxCell id="WkHlJ8shXKU_c_iPJ9zj-74" value="" style="edgeStyle=entityRelationEdgeStyle;fontSize=12;html=1;endArrow=ERoneToMany;rounded=0;entryX=0;entryY=0.5;entryDx=0;entryDy=0;exitX=1;exitY=0.5;exitDx=0;exitDy=0;" edge="1" parent="1" source="WkHlJ8shXKU_c_iPJ9zj-47" target="WkHlJ8shXKU_c_iPJ9zj-6">
          <mxGeometry width="100" height="100" relative="1" as="geometry">
            <mxPoint x="220" y="240" as="sourcePoint" />
            <mxPoint x="291.5999999999999" y="489.40999999999985" as="targetPoint" />
            <Array as="points">
              <mxPoint x="190" y="99" />
            </Array>
          </mxGeometry>
        </mxCell>
        <mxCell id="WkHlJ8shXKU_c_iPJ9zj-75" value="" style="edgeStyle=entityRelationEdgeStyle;fontSize=12;html=1;endArrow=ERoneToMany;rounded=0;exitX=0;exitY=0.5;exitDx=0;exitDy=0;entryX=1.003;entryY=0.305;entryDx=0;entryDy=0;entryPerimeter=0;" edge="1" parent="1" source="WkHlJ8shXKU_c_iPJ9zj-18" target="WkHlJ8shXKU_c_iPJ9zj-11">
          <mxGeometry width="100" height="100" relative="1" as="geometry">
            <mxPoint x="290" y="386" as="sourcePoint" />
            <mxPoint x="390" y="286" as="targetPoint" />
          </mxGeometry>
        </mxCell>
        <mxCell id="WkHlJ8shXKU_c_iPJ9zj-76" value="" style="edgeStyle=entityRelationEdgeStyle;fontSize=12;html=1;endArrow=ERoneToMany;rounded=0;exitX=1;exitY=0.5;exitDx=0;exitDy=0;entryX=0;entryY=0.5;entryDx=0;entryDy=0;" edge="1" parent="1" source="WkHlJ8shXKU_c_iPJ9zj-10" target="WkHlJ8shXKU_c_iPJ9zj-49">
          <mxGeometry width="100" height="100" relative="1" as="geometry">
            <mxPoint x="360" y="130" as="sourcePoint" />
            <mxPoint x="460" y="30" as="targetPoint" />
          </mxGeometry>
        </mxCell>
        <mxCell id="WkHlJ8shXKU_c_iPJ9zj-77" value="" style="edgeStyle=entityRelationEdgeStyle;fontSize=12;html=1;endArrow=ERoneToMany;rounded=0;exitX=0;exitY=0.5;exitDx=0;exitDy=0;entryX=0.996;entryY=0.023;entryDx=0;entryDy=0;entryPerimeter=0;" edge="1" parent="1" source="WkHlJ8shXKU_c_iPJ9zj-36" target="WkHlJ8shXKU_c_iPJ9zj-51">
          <mxGeometry width="100" height="100" relative="1" as="geometry">
            <mxPoint x="774.5199999999996" y="93.65999999999997" as="sourcePoint" />
            <mxPoint x="575.4800000000001" as="targetPoint" />
          </mxGeometry>
        </mxCell>
        <mxCell id="WkHlJ8shXKU_c_iPJ9zj-78" value="" style="edgeStyle=entityRelationEdgeStyle;fontSize=12;html=1;endArrow=ERoneToMany;rounded=0;exitX=0;exitY=0.5;exitDx=0;exitDy=0;entryX=1.003;entryY=0.2;entryDx=0;entryDy=0;entryPerimeter=0;" edge="1" parent="1" source="WkHlJ8shXKU_c_iPJ9zj-44" target="WkHlJ8shXKU_c_iPJ9zj-35">
          <mxGeometry width="100" height="100" relative="1" as="geometry">
            <mxPoint x="1350" y="366" as="sourcePoint" />
            <mxPoint x="1450" y="266" as="targetPoint" />
          </mxGeometry>
        </mxCell>
        <mxCell id="WkHlJ8shXKU_c_iPJ9zj-85" value="exercises" style="swimlane;fontStyle=0;childLayout=stackLayout;horizontal=1;startSize=26;horizontalStack=0;resizeParent=1;resizeParentMax=0;resizeLast=0;collapsible=1;marginBottom=0;align=center;fontSize=14;" vertex="1" parent="1">
          <mxGeometry x="520" y="240" width="160" height="266" as="geometry" />
        </mxCell>
        <mxCell id="WkHlJ8shXKU_c_iPJ9zj-86" value="id" style="text;strokeColor=none;fillColor=none;spacingLeft=4;spacingRight=4;overflow=hidden;rotatable=0;points=[[0,0.5],[1,0.5]];portConstraint=eastwest;fontSize=12;whiteSpace=wrap;html=1;" vertex="1" parent="WkHlJ8shXKU_c_iPJ9zj-85">
          <mxGeometry y="26" width="160" height="30" as="geometry" />
        </mxCell>
        <mxCell id="WkHlJ8shXKU_c_iPJ9zj-104" value="workout_id" style="text;strokeColor=none;fillColor=none;spacingLeft=4;spacingRight=4;overflow=hidden;rotatable=0;points=[[0,0.5],[1,0.5]];portConstraint=eastwest;fontSize=12;whiteSpace=wrap;html=1;" vertex="1" parent="WkHlJ8shXKU_c_iPJ9zj-85">
          <mxGeometry y="56" width="160" height="30" as="geometry" />
        </mxCell>
        <mxCell id="WkHlJ8shXKU_c_iPJ9zj-89" value="Description" style="text;strokeColor=none;fillColor=none;spacingLeft=4;spacingRight=4;overflow=hidden;rotatable=0;points=[[0,0.5],[1,0.5]];portConstraint=eastwest;fontSize=12;whiteSpace=wrap;html=1;" vertex="1" parent="WkHlJ8shXKU_c_iPJ9zj-85">
          <mxGeometry y="86" width="160" height="30" as="geometry" />
        </mxCell>
        <mxCell id="WkHlJ8shXKU_c_iPJ9zj-88" value="Number of Sets" style="text;strokeColor=none;fillColor=none;spacingLeft=4;spacingRight=4;overflow=hidden;rotatable=0;points=[[0,0.5],[1,0.5]];portConstraint=eastwest;fontSize=12;whiteSpace=wrap;html=1;" vertex="1" parent="WkHlJ8shXKU_c_iPJ9zj-85">
          <mxGeometry y="116" width="160" height="30" as="geometry" />
        </mxCell>
        <mxCell id="WkHlJ8shXKU_c_iPJ9zj-92" value="Maximum Repetitions" style="text;strokeColor=none;fillColor=none;spacingLeft=4;spacingRight=4;overflow=hidden;rotatable=0;points=[[0,0.5],[1,0.5]];portConstraint=eastwest;fontSize=12;whiteSpace=wrap;html=1;" vertex="1" parent="WkHlJ8shXKU_c_iPJ9zj-85">
          <mxGeometry y="146" width="160" height="30" as="geometry" />
        </mxCell>
        <mxCell id="WkHlJ8shXKU_c_iPJ9zj-90" value="Rest Time" style="text;strokeColor=none;fillColor=none;spacingLeft=4;spacingRight=4;overflow=hidden;rotatable=0;points=[[0,0.5],[1,0.5]];portConstraint=eastwest;fontSize=12;whiteSpace=wrap;html=1;" vertex="1" parent="WkHlJ8shXKU_c_iPJ9zj-85">
          <mxGeometry y="176" width="160" height="30" as="geometry" />
        </mxCell>
        <mxCell id="WkHlJ8shXKU_c_iPJ9zj-87" value="Weight" style="text;strokeColor=none;fillColor=none;spacingLeft=4;spacingRight=4;overflow=hidden;rotatable=0;points=[[0,0.5],[1,0.5]];portConstraint=eastwest;fontSize=12;whiteSpace=wrap;html=1;" vertex="1" parent="WkHlJ8shXKU_c_iPJ9zj-85">
          <mxGeometry y="206" width="160" height="30" as="geometry" />
        </mxCell>
        <mxCell id="WkHlJ8shXKU_c_iPJ9zj-91" value="Timer" style="text;strokeColor=none;fillColor=none;spacingLeft=4;spacingRight=4;overflow=hidden;rotatable=0;points=[[0,0.5],[1,0.5]];portConstraint=eastwest;fontSize=12;whiteSpace=wrap;html=1;" vertex="1" parent="WkHlJ8shXKU_c_iPJ9zj-85">
          <mxGeometry y="236" width="160" height="30" as="geometry" />
        </mxCell>
        <mxCell id="WkHlJ8shXKU_c_iPJ9zj-93" value="" style="edgeStyle=entityRelationEdgeStyle;fontSize=12;html=1;endArrow=ERoneToMany;rounded=0;exitX=1;exitY=0.5;exitDx=0;exitDy=0;entryX=-0.006;entryY=0.022;entryDx=0;entryDy=0;entryPerimeter=0;" edge="1" parent="1" source="WkHlJ8shXKU_c_iPJ9zj-80" target="WkHlJ8shXKU_c_iPJ9zj-89">
          <mxGeometry width="100" height="100" relative="1" as="geometry">
            <mxPoint x="460" y="420" as="sourcePoint" />
            <mxPoint x="560" y="320" as="targetPoint" />
          </mxGeometry>
        </mxCell>
        <mxCell id="WkHlJ8shXKU_c_iPJ9zj-94" value="Sets" style="swimlane;fontStyle=0;childLayout=stackLayout;horizontal=1;startSize=26;horizontalStack=0;resizeParent=1;resizeParentMax=0;resizeLast=0;collapsible=1;marginBottom=0;align=center;fontSize=14;" vertex="1" parent="1">
          <mxGeometry x="760" y="240" width="160" height="146" as="geometry" />
        </mxCell>
        <mxCell id="WkHlJ8shXKU_c_iPJ9zj-95" value="id" style="text;strokeColor=none;fillColor=none;spacingLeft=4;spacingRight=4;overflow=hidden;rotatable=0;points=[[0,0.5],[1,0.5]];portConstraint=eastwest;fontSize=12;whiteSpace=wrap;html=1;" vertex="1" parent="WkHlJ8shXKU_c_iPJ9zj-94">
          <mxGeometry y="26" width="160" height="30" as="geometry" />
        </mxCell>
        <mxCell id="WkHlJ8shXKU_c_iPJ9zj-96" value="exercises_id" style="text;strokeColor=none;fillColor=none;spacingLeft=4;spacingRight=4;overflow=hidden;rotatable=0;points=[[0,0.5],[1,0.5]];portConstraint=eastwest;fontSize=12;whiteSpace=wrap;html=1;" vertex="1" parent="WkHlJ8shXKU_c_iPJ9zj-94">
          <mxGeometry y="56" width="160" height="30" as="geometry" />
        </mxCell>
        <mxCell id="WkHlJ8shXKU_c_iPJ9zj-97" value="user_id" style="text;strokeColor=none;fillColor=none;spacingLeft=4;spacingRight=4;overflow=hidden;rotatable=0;points=[[0,0.5],[1,0.5]];portConstraint=eastwest;fontSize=12;whiteSpace=wrap;html=1;" vertex="1" parent="WkHlJ8shXKU_c_iPJ9zj-94">
          <mxGeometry y="86" width="160" height="30" as="geometry" />
        </mxCell>
        <mxCell id="WkHlJ8shXKU_c_iPJ9zj-98" value="count" style="text;strokeColor=none;fillColor=none;spacingLeft=4;spacingRight=4;overflow=hidden;rotatable=0;points=[[0,0.5],[1,0.5]];portConstraint=eastwest;fontSize=12;whiteSpace=wrap;html=1;" vertex="1" parent="WkHlJ8shXKU_c_iPJ9zj-94">
          <mxGeometry y="116" width="160" height="30" as="geometry" />
        </mxCell>
        <mxCell id="WkHlJ8shXKU_c_iPJ9zj-99" value="" style="edgeStyle=entityRelationEdgeStyle;fontSize=12;html=1;endArrow=ERoneToMany;rounded=0;exitX=1;exitY=0.5;exitDx=0;exitDy=0;entryX=0;entryY=0.5;entryDx=0;entryDy=0;" edge="1" parent="1" source="WkHlJ8shXKU_c_iPJ9zj-86" target="WkHlJ8shXKU_c_iPJ9zj-95">
          <mxGeometry width="100" height="100" relative="1" as="geometry">
            <mxPoint x="758.3999999999996" y="458.3699999999999" as="sourcePoint" />
            <mxPoint x="680" y="450" as="targetPoint" />
            <Array as="points">
              <mxPoint x="740" y="589" />
            </Array>
          </mxGeometry>
        </mxCell>
      </root>
    </mxGraphModel>
  </diagram>
</mxfile>
